<svg width="78" height="46" viewBox="0 0 78 46" fill="none" xmlns="http://www.w3.org/2000/svg">
<path fill-rule="evenodd" clip-rule="evenodd" d="M0 42H35V41H0V42ZM43 42H78V41H43V42Z" fill="url(#paint0_linear_101_1529)"/>
<path fill-rule="evenodd" clip-rule="evenodd" d="M39 46C41.7614 46 44 43.7614 44 41C44 38.2386 41.7614 36 39 36C36.2386 36 34 38.2386 34 41C34 43.7614 36.2386 46 39 46ZM38.6627 43.0333C38.7397 43.1666 38.9322 43.1666 39.0091 43.0333L40.8278 39.8833C40.9048 39.7499 40.8086 39.5833 40.6546 39.5833H37.0173C36.8633 39.5833 36.7671 39.7499 36.8441 39.8833L38.6627 43.0333Z" fill="#6A0506"/>
<circle cx="39" cy="29" r="2" fill="#6A0506"/>
<circle cx="39" cy="20" r="2" fill="#6A0506"/>
<circle cx="39" cy="11" r="2" fill="#6A0506"/>
<circle cx="39" cy="2" r="2" fill="#6A0506"/>
<defs>
<linearGradient id="paint0_linear_101_1529" x1="1.56033e-10" y1="42" x2="78" y2="42" gradientUnits="userSpaceOnUse">
<stop stop-color="#6A0506" stop-opacity="0"/>
<stop offset="0.505" stop-color="#6A0506"/>
<stop offset="1" stop-color="#6A0506" stop-opacity="0"/>
</linearGradient>
</defs>
</svg>
