<svg width="49" height="274" viewBox="0 0 49 274" fill="none" xmlns="http://www.w3.org/2000/svg">
<path d="M46.3381 33.455C46.5791 33.546 46.8633 33.3989 46.9728 33.1266L48.7574 28.6892C48.8669 28.4169 48.7603 28.1224 48.5192 28.0315C48.2782 27.9405 47.994 28.0876 47.8845 28.3599L46.2982 32.3043L42.8067 30.9872C42.5657 30.8963 42.2815 31.0433 42.172 31.3156C42.0625 31.5879 42.1691 31.8824 42.4102 31.9733L46.3381 33.455ZM12.083 11.2283C23.0348 7.9162 39.3941 14.7096 46.0876 33.1942L46.9852 32.7298C40.1574 13.8742 23.397 6.75682 11.917 10.2287L12.083 11.2283Z" fill="#6A0506"/>
<path d="M3.22442 116C2.98654 116.106 2.69377 115.979 2.57049 115.715L0.561533 111.42C0.438253 111.156 0.531155 110.856 0.769034 110.75C1.00691 110.644 1.29969 110.772 1.42297 111.036L3.20871 114.854L6.65445 113.318C6.89233 113.212 7.18511 113.339 7.30839 113.603C7.43167 113.867 7.33876 114.166 7.10089 114.272L3.22442 116ZM36.4409 91.4632C25.3654 88.9067 9.32962 96.8045 3.46361 115.725L2.5388 115.321C8.51887 96.0331 24.9363 87.7758 36.5591 90.4586L36.4409 91.4632Z" fill="#6A0506"/>
<path d="M43.7347 195.081C43.9634 195.219 44.27 195.134 44.4197 194.891L46.8582 190.937C47.0078 190.694 46.9438 190.386 46.7151 190.248C46.4865 190.111 46.1799 190.196 46.0302 190.438L43.8626 193.953L40.5508 191.959C40.3221 191.821 40.0155 191.906 39.8658 192.149C39.7162 192.392 39.7802 192.7 40.0089 192.838L43.7347 195.081ZM13.01 165.964C24.2385 165.007 39.4418 175.135 43.5214 194.776L44.49 194.508C40.3351 174.503 24.7941 163.951 12.99 164.958L13.01 165.964Z" fill="#6A0506"/>
<path d="M11.6689 272.828C11.4525 272.995 11.1384 272.952 10.9673 272.731L8.17836 269.142C8.00721 268.922 8.04388 268.608 8.26025 268.441C8.47662 268.274 8.79076 268.317 8.9619 268.537L11.4409 271.728L14.5751 269.308C14.7915 269.141 15.1056 269.184 15.2768 269.405C15.4479 269.625 15.4112 269.939 15.1949 270.106L11.6689 272.828ZM39.6754 239.75C28.4342 240.307 14.2002 252.418 11.8552 272.497L10.8629 272.361C13.2503 251.919 27.7787 239.337 39.6058 238.75L39.6754 239.75Z" fill="#6A0506"/>
</svg>
