<svg width="1920" height="597" viewBox="0 0 1920 597" fill="none" xmlns="http://www.w3.org/2000/svg">
<path d="M-1 596C100.5 546.167 370.4 446.9 636 448.5C968 450.5 1206 259 1534.5 251.5C1797.3 245.5 1901 171.5 1920.5 1" stroke="url(#paint0_linear_101_504)" stroke-width="2"/>
<circle cx="312.5" cy="491" r="35" fill="#6A0506"/>
<path d="M312.198 505.834C311.813 506.501 310.851 506.501 310.466 505.834L297.043 482.584C296.658 481.917 297.139 481.084 297.909 481.084H324.755C325.525 481.084 326.006 481.917 325.621 482.584L312.198 505.834Z" fill="white"/>
<circle cx="747.5" cy="442" r="35" fill="#6A0506"/>
<path d="M747.198 456.834C746.813 457.501 745.851 457.501 745.466 456.834L732.043 433.584C731.658 432.917 732.139 432.084 732.909 432.084H759.755C760.525 432.084 761.006 432.917 760.621 433.584L747.198 456.834Z" fill="white"/>
<circle cx="1125.5" cy="338" r="35" fill="#6A0506"/>
<path d="M1125.2 352.834C1124.81 353.501 1123.85 353.501 1123.47 352.834L1110.04 329.584C1109.66 328.917 1110.14 328.084 1110.91 328.084H1137.76C1138.53 328.084 1139.01 328.917 1138.62 329.584L1125.2 352.834Z" fill="white"/>
<circle cx="1589.5" cy="250" r="35" fill="#6A0506"/>
<path d="M1589.2 264.834C1588.81 265.501 1587.85 265.501 1587.47 264.834L1574.04 241.584C1573.66 240.917 1574.14 240.084 1574.91 240.084H1601.76C1602.53 240.084 1603.01 240.917 1602.62 241.584L1589.2 264.834Z" fill="white"/>
<defs>
<linearGradient id="paint0_linear_101_504" x1="-19.5" y1="408" x2="1920.5" y2="298.5" gradientUnits="userSpaceOnUse">
<stop stop-color="#6A0506" stop-opacity="0"/>
<stop offset="0.223016" stop-color="#6A0506"/>
<stop offset="0.869158" stop-color="#6A0506"/>
<stop offset="1" stop-color="#6A0506" stop-opacity="0"/>
</linearGradient>
</defs>
</svg>
