<svg width="54" height="89" viewBox="0 0 54 89" fill="none" xmlns="http://www.w3.org/2000/svg">
<path d="M0.0888921 83.5878C-0.138742 84.091 0.0846411 84.6835 0.587832 84.9111L8.7878 88.6206C9.29099 88.8483 9.88344 88.6249 10.1111 88.1217C10.3387 87.6185 10.1153 87.026 9.61214 86.7984L2.32328 83.5011L5.62062 76.2122C5.84825 75.709 5.62487 75.1166 5.12168 74.8889C4.61849 74.6613 4.02604 74.8847 3.7984 75.3879L0.0888921 83.5878ZM50.515 1.17238C53.966 20.8928 48.8359 64.8948 0.647196 83.0643L1.3528 84.9357C50.7641 66.3052 56.034 21.1072 52.485 0.82762L50.515 1.17238Z" fill="url(#paint0_linear_101_293)"/>
<defs>
<linearGradient id="paint0_linear_101_293" x1="11.5" y1="82" x2="60.5" y2="7.5" gradientUnits="userSpaceOnUse">
<stop offset="0.5" stop-color="#6A0506"/>
<stop offset="0.939132" stop-color="#6A0506" stop-opacity="0"/>
</linearGradient>
</defs>
</svg>
