<svg width="42" height="40" viewBox="0 0 42 40" fill="none" xmlns="http://www.w3.org/2000/svg">
<g clip-path="url(#clip0_101_709)">
<path d="M24.3664 19.6465L19.6498 17.5526C19.2382 17.3708 18.9001 17.5746 18.9001 18.0081V21.9522C18.9001 22.3858 19.2382 22.5896 19.6498 22.4078L24.3643 20.3139C24.778 20.13 24.778 19.8303 24.3664 19.6465ZM21.0001 0.799194C9.86589 0.799194 0.840088 9.38669 0.840088 19.9802C0.840088 30.5737 9.86589 39.1612 21.0001 39.1612C32.1343 39.1612 41.1601 30.5737 41.1601 19.9802C41.1601 9.38669 32.1343 0.799194 21.0001 0.799194ZM21.0001 27.7725C10.6807 27.7725 10.5001 26.8874 10.5001 19.9802C10.5001 13.073 10.6807 12.1879 21.0001 12.1879C31.3195 12.1879 31.5001 13.073 31.5001 19.9802C31.5001 26.8874 31.3195 27.7725 21.0001 27.7725Z" fill="white"/>
</g>
<defs>
<clipPath id="clip0_101_709">
<rect width="42" height="39.9604" fill="white"/>
</clipPath>
</defs>
</svg>
